<?xml version="1.0" encoding="UTF-8" standalone="no"?>

<svg
   version="1.1"
   id="svg182"
   width="644.93372"
   height="736.2583"
   viewBox="0 0 644.93372 736.2583"
   xmlns="http://www.w3.org/2000/svg"
   xmlns:svg="http://www.w3.org/2000/svg">
  <defs
     id="defs186">
    <linearGradient
       id="linearGradient3113">
      <stop
         style="stop-color:#4d5f64;stop-opacity:1;"
         offset="0"
         id="stop3111" />
    </linearGradient>
  </defs>
  <g
     id="g188"
     transform="translate(-317.53314,-271.87082)">
    <path
       id="path494"
       d="m 637.19331,271.9202 c -1.04045,-0.2942 -2.03047,0.7301 -3.38477,2.95899 -1.60332,2.63875 -24.25956,43.96902 -40.97656,74.75 -1.94156,3.575 -11.8504,21.57502 -22.01953,40 -10.16912,18.42498 -22.73451,41.37501 -27.92383,51 -5.18931,9.62499 -10.78155,19.8625 -12.42578,22.75 l -2.98828,5.25 H 423.54683 c -106.79173,0 -106.4741,-0.0101 -102.99805,3.55078 1.16332,1.19172 12.88982,21.44398 37.31641,64.44922 19.19723,33.79847 22.53083,39.63886 40.25781,70.5 5.37074,9.34999 13.37467,23.30001 17.78515,31 4.4105,7.69999 9.14221,15.78144 10.51563,17.95703 2.45003,3.88103 2.46315,4.01304 0.72266,7 -2.0375,3.49668 -41.42005,76.8097 -58.03907,108.04297 -17.36597,32.63706 -26.61231,49.60549 -29.64257,54.39648 -1.52934,2.41796 -2.52431,4.81132 -2.21094,5.31836 0.31337,0.50704 1.23448,0.66602 2.04883,0.35352 0.81434,-0.31249 16.93029,-0.56836 35.8125,-0.56836 h 34.33203 l 7.96679,-15.25 c 4.38139,-8.38749 11.01301,-21.10001 14.73829,-28.25 3.72527,-7.14999 8.45032,-15.925 10.5,-19.5 2.04967,-3.575 5.40456,-9.875 7.45507,-14 2.05051,-4.125 5.86639,-11.32501 8.48047,-16 2.61408,-4.675 10.07218,-18.40001 16.57227,-30.5 14.49224,-26.97747 21.53507,-40.00878 26.21289,-48.5 1.96947,-3.575 7.96035,-14.60001 13.31445,-24.5 5.35411,-9.89999 17.03675,-31.50002 25.96094,-48 8.92419,-16.49998 18.02202,-33.15 20.2168,-37 6.52316,-11.44268 44.24689,-79.95473 51.48242,-93.5 2.20347,-4.125 7.98308,-14.70001 12.84375,-23.5 4.86066,-8.79999 10.20762,-18.58218 11.88281,-21.74023 3.90669,-7.36489 3.12226,-7.87526 11.57813,7.49023 6.53806,11.88056 14.46091,25.72162 30.48437,53.25 5.82701,10.01083 14.83943,25.96367 28.24805,50 14.18303,25.42455 30.40023,53.8912 31.45898,55.2207 0.85699,1.07614 68.32352,0.80169 69.61722,-0.2832 0.3668,-0.30761 -1.802,-4.349 -16.875,-31.4375 -5.3556,-9.62499 -14.2407,-25.60001 -19.7461,-35.5 -5.5054,-9.89999 -16.8775,-30.15002 -25.26956,-45 -8.39207,-14.84999 -19.7575,-35.10001 -25.25781,-45 -5.50031,-9.89999 -14.51062,-25.87501 -20.02344,-35.5 -5.51281,-9.62499 -14.04995,-24.70001 -18.9707,-33.5 -4.92074,-8.79999 -12.57446,-22.30001 -17.00781,-30 -15.13313,-26.28366 -21.74877,-37.99801 -24.42774,-43.25 -1.5568,-3.05206 -2.649,-4.66478 -3.68945,-4.95899 z m 4.48828,196.09376 c -2.3022,0.50885 -4.87246,5.67503 -10.49219,16.11523 -11.18213,20.7739 -15.16783,28.07191 -27.58007,50.5 -5.32671,9.62499 -12.07268,22 -14.99219,27.5 -2.91952,5.49999 -7.09089,13.15 -9.26953,17 -2.17865,3.85 -6.22653,11.275 -8.99414,16.5 -2.76761,5.22499 -8.85268,16.47501 -13.52344,25 -23.59401,43.06335 -43.48733,79.64019 -48.67578,89.5 -3.18365,6.04999 -6.81678,12.8 -8.07422,15 -1.25744,2.2 -9.1384,16.82502 -17.51367,32.5 -27.23888,50.97965 -30.1862,56.40455 -34.59571,63.68164 -2.39287,3.94902 -4.34961,7.66629 -4.34961,8.26172 0,0.76147 10.5727,1.00504 35.64454,0.82031 l 35.64648,-0.26367 5.1875,-9.5 c 2.85279,-5.225 9.83669,-18.05001 15.52148,-28.5 13.91872,-25.58588 28.80017,-52.66059 29.95508,-54.5 0.518,-0.825 5.3534,-9.54731 10.74414,-19.38281 5.39076,-9.8355 11.06302,-20.18552 12.60547,-23 1.54245,-2.81449 5.42876,-9.8422 8.63672,-15.61719 10.68984,-19.244 24.30401,-44.31082 33.58008,-61.82813 10.94166,-20.66264 9.22714,-20.1833 17.9707,-5.02734 17.53271,30.39092 21.17452,36.7948 24.78516,43.60547 l 3.84375,7.25 h 123.87308 c 69.4532,0 124.8914,-0.38855 126.1894,-0.88477 2.375,-0.90801 4.1783,-3.83878 22.5254,-36.61523 5.2338,-9.34999 10.1046,-17.675 10.8242,-18.5 3.7234,-4.26882 8.2483,-4.1168 -120.0332,-4.0332 l -121.99998,0.0801 -3.72265,-7.27343 c -3.37866,-6.60343 -14.19779,-26.06363 -23.78125,-42.77344 -2.05035,-3.575 -7.47231,-13.25001 -12.04883,-21.5 -11.28239,-20.33852 -20.2035,-36.41935 -29.00391,-52.28125 -4.54576,-8.19331 -6.5806,-12.34284 -8.88281,-11.83398 z m -180.56055,60.61523 c 30.13467,0 38.4981,0.2716 38.4961,1.25 -0.001,0.6875 -1.63222,3.95 -3.625,7.25 -1.99278,3.3 -8.1471,14.32501 -13.67578,24.5 -5.5287,10.17499 -12.1875,22.67728 -14.79688,27.78125 -4.53414,8.86881 -7.89844,10.5841 -7.89844,4.02734 0,-0.41074 -2.17943,-4.47298 -4.84179,-9.02734 -2.66237,-4.55437 -6.79552,-11.88126 -9.18555,-16.28125 -4.90646,-9.03273 -13.85696,-24.18257 -19.31836,-32.70117 -2.01058,-3.13608 -3.6543,-5.94858 -3.6543,-6.25 0,-0.30142 17.32503,-0.54883 38.5,-0.54883 z m 243.77344,161.02344 c -8.28573,0.0764 -12.27344,0.44282 -12.27344,1.10156 10e-6,0.61785 2.02501,4.4585 4.5,8.53516 2.475,4.07665 4.5,7.59328 4.5,7.81445 10e-6,0.36261 15.26502,28.05869 29.7754,54.02539 3.07343,5.49999 7.67793,13.825 10.23242,18.5 8.37972,15.33584 24.05776,43.14426 26.55466,47.09961 l 2.4453,3.875 35.2461,0.27734 c 19.3851,0.1518 35.5073,0.38148 35.8282,0.51172 2.0484,0.83153 1.1551,-1.88345 -2.8282,-8.58789 -4.4663,-7.51732 -14.8198,-26.13628 -36.2441,-65.17578 -5.8857,-10.72499 -12.0598,-21.75 -13.7188,-24.5 -1.6589,-2.75 -7.5794,-13.36499 -13.1582,-23.58984 l -10.1445,-18.58985 -22.65624,-0.66015 c -17.1899,-0.50027 -29.77287,-0.71311 -38.0586,-0.63672 z m 133.28714,0.73633 c -18.3645,-0.29751 -34.8171,-0.24916 -36.5606,0.10742 l -3.1699,0.64843 1.916,2.49219 c 1.8429,2.39743 16.0084,27.71967 31.3223,55.99219 4.0217,7.42499 9.8134,17.8752 12.8711,23.2207 6.6001,11.53814 10.6314,18.68848 23.1172,41.01758 l 9.3593,16.73828 35.5411,0.27539 c 19.5481,0.15149 35.8804,0.38139 36.2929,0.51172 1.3953,0.44084 0.7616,-0.93909 -4.6347,-10.11133 -2.9611,-5.03297 -7.3901,-12.97735 -9.8438,-17.65234 -4.753,-9.05556 -12.6265,-23.34173 -18.7383,-34 -2.05,-3.575 -5.6492,-10.10001 -7.9961,-14.5 -7.1306,-13.36843 -11.2964,-20.87414 -13.0468,-23.5 -0.9166,-1.375 -3.7041,-6.32501 -6.1934,-11 -5.4576,-10.24964 -7.8078,-14.4465 -12.9355,-23.09961 l -3.9122,-6.59961 z M 470.55659,870.38505 c -7.87803,0.4585 -12.34374,9.99221 -6.01367,16.32226 3.13125,3.13125 5.87506,3.58722 10.94922,1.81836 7.85183,-2.73716 6.8669,-15.48864 -1.3711,-17.74609 -1.2432,-0.34067 -2.43901,-0.46003 -3.56445,-0.39453 z m 146.08203,2.16406 -8.25976,0.29102 -8.25782,0.28906 -0.25195,52 c -0.13816,28.59997 -0.033,52.58218 0.23438,53.29297 0.35354,0.94 2.60415,1.21262 8.25195,1 l 7.76562,-0.29297 0.25782,-53.28906 z m 258.8574,5.0957 c -9.834,-0.0415 -7.8315,-3.09786 -26.416,40.33985 -9.2115,21.5301 -18.9331,43.82103 -21.6035,49.53515 -2.6703,5.71412 -4.8555,10.55162 -4.8555,10.75 0,0.19837 3.9764,0.35938 8.836,0.35938 h 8.8359 l 4.5781,-11.25 4.5781,-11.25 h 24.1876 24.1874 l 3.9864,9.5 c 2.1927,5.22499 4.3445,10.4 4.7812,11.5 1.1079,2.7906 18.4419,3.37483 17.5586,0.5918 -0.2905,-0.91531 -3.9451,-9.29714 -8.1211,-18.62696 -4.1761,-9.32982 -9.3841,-21.23985 -11.5722,-26.46484 -20.8168,-49.70948 -23.5827,-54.96168 -28.961,-54.98438 z m -557.37498,0.48438 -0.29492,7.25 -0.29297,7.25 h 15.04297 15.04492 v 42.95703 42.95703 l 7.25,0.33399 c 3.9875,0.18407 7.70001,0.27748 8.25,0.20898 0.6493,-0.0809 1,-15.26307 1,-43.29102 v -43.16601 h 15.29297 15.29493 l -0.29493,-7.25 -0.29297,-7.25 h -38 z m 632.91798,0.89453 c -0.87,0.33385 -4.5825,0.60665 -8.25,0.60742 l -6.668,0.002 -0.0195,49.49804 h -0.002 l -0.0195,49.49805 h 8.2715 8.2695 v -50.10547 c 0,-45.28013 -0.1526,-50.04852 -1.582,-49.5 z m -210.2793,3.60547 c -2.12323,0 -5.94824,0.28697 -8.5,0.63672 l -4.63868,0.63672 v 9.36328 9.36328 h -5.5 -5.5 v 6.5 6.5 h 5.5 5.5 l 0.0234,22.25 c 0.0328,29.89769 1.41288,34.78858 11.17969,39.62305 5.66096,2.80211 18.18065,2.88558 24.79685,0.16601 5.2164,-2.14418 5.4727,-3.58802 2.0117,-11.33008 l -2.1425,-4.79101 -3.1856,1.93359 c -5.9518,3.61317 -9.2932,3.69315 -12.68162,0.30469 l -3.00196,-3.00195 v -22.54297 -22.54297 l 10.74998,-0.2832 10.75,-0.28516 v -6.5 -6.5 l -8.5,0.26562 c -13.54997,0.42295 -12.99998,0.85923 -12.99998,-10.2832 v -9.48242 z m 132.7832,17.02148 c 0.5809,0.0213 15.8609,36.43455 16.8066,40.05079 0.4842,1.85168 -0.203,1.92773 -17.0683,1.92773 h -17.5723 l 1.4629,-4.14649 c 2.6513,-7.51448 15.7803,-37.85373 16.3711,-37.83203 z m -325.3457,0.14844 c -8.00116,-0.54371 -16.25183,1.93527 -23.54688,8.49414 l -5.0293,4.52149 v -5.63282 -5.63281 l -8.14062,0.29102 -8.13867,0.28906 -0.48242,52.36523 c -0.32862,35.63285 -0.15198,52.56818 0.55468,52.99998 0.57118,0.3491 4.3394,0.6348 8.37305,0.6348 h 7.33398 l 0.5,-19.83204 0.5,-19.83399 2.5,2.6836 c 15.40219,16.5241 47.5908,9.1036 58.29883,-13.43946 13.03718,-27.44647 -8.71917,-56.27708 -32.72265,-57.9082 z m -100.49805,0.48047 c -4.57937,-0.39401 -14.79289,3.95344 -20.40039,9.64258 l -5.82227,5.90625 0.25,-6.84961 0.25,-6.84961 -8.17773,-0.28906 -8.17774,-0.29102 v 39.02149 39.02343 l 8.5,-0.0625 8.5,-0.0625 0.0156,-19.66992 c 0.0257,-32.35486 5.15004,-42.06748 22.23437,-42.14648 l 4.75,-0.0234 0.1504,-7 c 0.0825,-3.85 0.195,-7.5625 0.25,-8.25 0.10486,-1.31078 -0.79581,-1.96827 -2.32227,-2.09961 z m 223.86914,0.84961 c -45.20038,0 -55.36375,62.99523 -12.44727,77.15039 12.20448,4.02541 32.81574,0.28004 41.78126,-7.5918 4.13467,-3.63028 4.10103,-3.84365 -1.7168,-10.54492 l -3.46094,-3.98633 -2.80273,2.6836 c -14.5719,13.95458 -37.83937,8.1234 -43.74024,-10.96094 l -0.69531,-2.25 h 30.56836 30.5664 l -0.008,-4.25 c -0.046,-25.88643 -13.62284,-40.25 -38.04492,-40.25 z m -207.94727,0.5 v 32.85351 c 0,18.06931 -0.29067,35.63875 -0.64648,39.04297 l -0.64844,6.18946 8.39844,-0.29297 8.39648,-0.29297 0.26172,-38.75 0.26172,-38.75 h -8.01172 z m 210.04688,12.3418 c 1.69919,0.0154 3.37269,0.22193 4.97852,0.64843 6.88607,1.82893 14.9746,10.55808 14.9746,16.16016 v 2.84961 h -22.5 c -12.37498,0 -22.5,-0.23858 -22.5,-0.53125 10e-6,-9.90304 13.15254,-19.2345 25.04688,-19.12695 z m -131.04688,0.72461 c 8.7679,-0.47215 17.78549,3.85008 22.45118,13.21289 6.29396,12.63033 1.24441,29.75406 -10.54688,35.76953 -20.52675,10.47196 -41.35848,-10.72294 -32.86133,-33.4336 3.67104,-9.81173 12.18914,-15.07668 20.95703,-15.54882 z m 233.99998,21.93359 v 7 7.00195 l 15.75,-0.01 c 8.6625,-0.005 18.1125,-0.29185 21,-0.63868 l 5.25,-0.63085 v -6.36133 -6.36133 h -21 z" />
  </g>
</svg>
